<?xml version="1.0" encoding="UTF-8" standalone="no"?>
<!DOCTYPE svg PUBLIC "-//W3C//DTD SVG 1.1//EN"
 "http://www.w3.org/Graphics/SVG/1.1/DTD/svg11.dtd">
<!-- Generated by graphviz version 2.38.0 (20140413.2041)
 -->
<!-- Title: G Pages: 1 -->
<svg width="1455pt" height="553pt"
 viewBox="0.00 0.00 1455.20 552.70" xmlns="http://www.w3.org/2000/svg" xmlns:xlink="http://www.w3.org/1999/xlink">
<g id="graph0" class="graph" transform="scale(1 1) rotate(0) translate(21.6 531.1)">
<title>G</title>
<polygon fill="#111111" stroke="none" points="-21.6,21.6 -21.6,-531.1 1433.6,-531.1 1433.6,21.6 -21.6,21.6"/>
<!-- actor.js -->
<g id="node1" class="node"><title>actor.js</title>
<path fill="none" stroke="#c6c5fe" d="M1246.33,-363.5C1246.33,-363.5 1199.67,-363.5 1199.67,-363.5 1195.83,-363.5 1192,-359.667 1192,-355.833 1192,-355.833 1192,-348.167 1192,-348.167 1192,-344.333 1195.83,-340.5 1199.67,-340.5 1199.67,-340.5 1246.33,-340.5 1246.33,-340.5 1250.17,-340.5 1254,-344.333 1254,-348.167 1254,-348.167 1254,-355.833 1254,-355.833 1254,-359.667 1250.17,-363.5 1246.33,-363.5"/>
<text text-anchor="middle" x="1223" y="-348.3" font-family="Arial" font-size="14.00" fill="#c6c5fe">actor.js</text>
</g>
<!-- connection.js -->
<g id="node2" class="node"><title>connection.js</title>
<path fill="none" stroke="#cfffac" d="M1404.33,-49.5C1404.33,-49.5 1319.67,-49.5 1319.67,-49.5 1315.83,-49.5 1312,-45.6667 1312,-41.8333 1312,-41.8333 1312,-34.1667 1312,-34.1667 1312,-30.3333 1315.83,-26.5 1319.67,-26.5 1319.67,-26.5 1404.33,-26.5 1404.33,-26.5 1408.17,-26.5 1412,-30.3333 1412,-34.1667 1412,-34.1667 1412,-41.8333 1412,-41.8333 1412,-45.6667 1408.17,-49.5 1404.33,-49.5"/>
<text text-anchor="middle" x="1362" y="-34.3" font-family="Arial" font-size="14.00" fill="#cfffac">connection.js</text>
</g>
<!-- actor.js&#45;&gt;connection.js -->
<g id="edge1" class="edge"><title>actor.js&#45;&gt;connection.js</title>
<path fill="none" stroke="#757575" d="M1229.04,-340.452C1249.35,-293.908 1325.36,-119.678 1351.84,-58.9974"/>
<polygon fill="#757575" stroke="#757575" points="1355.12,-60.2181 1355.92,-49.6528 1348.71,-57.4187 1355.12,-60.2181"/>
</g>
<!-- room.js -->
<g id="node3" class="node"><title>room.js</title>
<path fill="none" stroke="#cfffac" d="M1386.33,-383.5C1386.33,-383.5 1337.67,-383.5 1337.67,-383.5 1333.83,-383.5 1330,-379.667 1330,-375.833 1330,-375.833 1330,-368.167 1330,-368.167 1330,-364.333 1333.83,-360.5 1337.67,-360.5 1337.67,-360.5 1386.33,-360.5 1386.33,-360.5 1390.17,-360.5 1394,-364.333 1394,-368.167 1394,-368.167 1394,-375.833 1394,-375.833 1394,-379.667 1390.17,-383.5 1386.33,-383.5"/>
<text text-anchor="middle" x="1362" y="-368.3" font-family="Arial" font-size="14.00" fill="#cfffac">room.js</text>
</g>
<!-- actor.js&#45;&gt;room.js -->
<g id="edge2" class="edge"><title>actor.js&#45;&gt;room.js</title>
<path fill="none" stroke="#757575" d="M1254.07,-356.389C1273.29,-359.195 1298.48,-362.874 1319.59,-365.955"/>
<polygon fill="#757575" stroke="#757575" points="1319.18,-369.431 1329.58,-367.413 1320.19,-362.505 1319.18,-369.431"/>
</g>
<!-- command&#45;executors.js -->
<g id="node4" class="node"><title>command&#45;executors.js</title>
<path fill="none" stroke="#c6c5fe" d="M632.833,-443.5C632.833,-443.5 487.167,-443.5 487.167,-443.5 483.333,-443.5 479.5,-439.667 479.5,-435.833 479.5,-435.833 479.5,-428.167 479.5,-428.167 479.5,-424.333 483.333,-420.5 487.167,-420.5 487.167,-420.5 632.833,-420.5 632.833,-420.5 636.667,-420.5 640.5,-424.333 640.5,-428.167 640.5,-428.167 640.5,-435.833 640.5,-435.833 640.5,-439.667 636.667,-443.5 632.833,-443.5"/>
<text text-anchor="middle" x="560" y="-428.3" font-family="Arial" font-size="14.00" fill="#c6c5fe">command&#45;executors.js</text>
</g>
<!-- command&#45;executors.js&#45;&gt;room.js -->
<g id="edge3" class="edge"><title>command&#45;executors.js&#45;&gt;room.js</title>
<path fill="none" stroke="#757575" d="M630.851,-443.509C739.386,-459.36 954.695,-482.671 1134,-452 1205.41,-439.784 1284.22,-407.418 1327.65,-387.8"/>
<polygon fill="#757575" stroke="#757575" points="1329.24,-390.923 1336.88,-383.582 1326.33,-384.556 1329.24,-390.923"/>
</g>
<!-- search.js -->
<g id="node5" class="node"><title>search.js</title>
<path fill="none" stroke="#c6c5fe" d="M1050.83,-443.5C1050.83,-443.5 992.167,-443.5 992.167,-443.5 988.333,-443.5 984.5,-439.667 984.5,-435.833 984.5,-435.833 984.5,-428.167 984.5,-428.167 984.5,-424.333 988.333,-420.5 992.167,-420.5 992.167,-420.5 1050.83,-420.5 1050.83,-420.5 1054.67,-420.5 1058.5,-424.333 1058.5,-428.167 1058.5,-428.167 1058.5,-435.833 1058.5,-435.833 1058.5,-439.667 1054.67,-443.5 1050.83,-443.5"/>
<text text-anchor="middle" x="1021.5" y="-428.3" font-family="Arial" font-size="14.00" fill="#c6c5fe">search.js</text>
</g>
<!-- command&#45;executors.js&#45;&gt;search.js -->
<g id="edge4" class="edge"><title>command&#45;executors.js&#45;&gt;search.js</title>
<path fill="none" stroke="#757575" d="M640.514,-432C736.879,-432 896.036,-432 974.229,-432"/>
<polygon fill="#757575" stroke="#757575" points="974.258,-435.5 984.258,-432 974.258,-428.5 974.258,-435.5"/>
</g>
<!-- state.js -->
<g id="node6" class="node"><title>state.js</title>
<path fill="none" stroke="#c6c5fe" d="M804.833,-402.5C804.833,-402.5 758.167,-402.5 758.167,-402.5 754.333,-402.5 750.5,-398.667 750.5,-394.833 750.5,-394.833 750.5,-387.167 750.5,-387.167 750.5,-383.333 754.333,-379.5 758.167,-379.5 758.167,-379.5 804.833,-379.5 804.833,-379.5 808.667,-379.5 812.5,-383.333 812.5,-387.167 812.5,-387.167 812.5,-394.833 812.5,-394.833 812.5,-398.667 808.667,-402.5 804.833,-402.5"/>
<text text-anchor="middle" x="781.5" y="-387.3" font-family="Arial" font-size="14.00" fill="#c6c5fe">state.js</text>
</g>
<!-- command&#45;executors.js&#45;&gt;state.js -->
<g id="edge5" class="edge"><title>command&#45;executors.js&#45;&gt;state.js</title>
<path fill="none" stroke="#757575" d="M622.727,-420.47C660.371,-413.439 707.404,-404.653 740.282,-398.512"/>
<polygon fill="#757575" stroke="#757575" points="741.243,-401.893 750.43,-396.617 739.957,-395.012 741.243,-401.893"/>
</g>
<!-- search.js&#45;&gt;actor.js -->
<g id="edge29" class="edge"><title>search.js&#45;&gt;actor.js</title>
<path fill="none" stroke="#757575" d="M1051.51,-420.367C1086.48,-406.345 1145.34,-382.74 1183.93,-367.265"/>
<polygon fill="#757575" stroke="#757575" points="1185.3,-370.487 1193.28,-363.517 1182.7,-363.99 1185.3,-370.487"/>
</g>
<!-- state.js&#45;&gt;actor.js -->
<g id="edge30" class="edge"><title>state.js&#45;&gt;actor.js</title>
<path fill="none" stroke="#757575" d="M812.644,-387.735C838.263,-385 876.026,-381.064 909,-378 1006.83,-368.911 1122,-359.736 1181.64,-355.099"/>
<polygon fill="#757575" stroke="#757575" points="1182.07,-358.577 1191.77,-354.314 1181.53,-351.598 1182.07,-358.577"/>
</g>
<!-- state.js&#45;&gt;room.js -->
<g id="edge32" class="edge"><title>state.js&#45;&gt;room.js</title>
<path fill="none" stroke="#757575" d="M812.788,-390.005C909.294,-386.836 1209.67,-376.97 1319.9,-373.35"/>
<polygon fill="#757575" stroke="#757575" points="1320.08,-376.846 1329.96,-373.019 1319.85,-369.85 1320.08,-376.846"/>
</g>
<!-- state.js&#45;&gt;search.js -->
<g id="edge33" class="edge"><title>state.js&#45;&gt;search.js</title>
<path fill="none" stroke="#757575" d="M812.643,-396.193C853.429,-403.219 926.571,-415.819 974.313,-424.043"/>
<polygon fill="#757575" stroke="#757575" points="973.94,-427.531 984.389,-425.779 975.129,-420.632 973.94,-427.531"/>
</g>
<!-- myTransforms.js -->
<g id="node13" class="node"><title>myTransforms.js</title>
<path fill="none" stroke="#cfffac" d="M1074.83,-325.5C1074.83,-325.5 968.167,-325.5 968.167,-325.5 964.333,-325.5 960.5,-321.667 960.5,-317.833 960.5,-317.833 960.5,-310.167 960.5,-310.167 960.5,-306.333 964.333,-302.5 968.167,-302.5 968.167,-302.5 1074.83,-302.5 1074.83,-302.5 1078.67,-302.5 1082.5,-306.333 1082.5,-310.167 1082.5,-310.167 1082.5,-317.833 1082.5,-317.833 1082.5,-321.667 1078.67,-325.5 1074.83,-325.5"/>
<text text-anchor="middle" x="1021.5" y="-310.3" font-family="Arial" font-size="14.00" fill="#cfffac">myTransforms.js</text>
</g>
<!-- state.js&#45;&gt;myTransforms.js -->
<g id="edge31" class="edge"><title>state.js&#45;&gt;myTransforms.js</title>
<path fill="none" stroke="#757575" d="M807.759,-379.47C832.997,-368.273 873.1,-351.348 909,-340 923.167,-335.522 938.567,-331.442 953.273,-327.91"/>
<polygon fill="#757575" stroke="#757575" points="954.382,-331.245 963.318,-325.554 952.783,-324.43 954.382,-331.245"/>
</g>
<!-- commands.js -->
<g id="node7" class="node"><title>commands.js</title>
<path fill="none" stroke="#cfffac" d="M142.833,-386.5C142.833,-386.5 57.1667,-386.5 57.1667,-386.5 53.3333,-386.5 49.5,-382.667 49.5,-378.833 49.5,-378.833 49.5,-371.167 49.5,-371.167 49.5,-367.333 53.3333,-363.5 57.1667,-363.5 57.1667,-363.5 142.833,-363.5 142.833,-363.5 146.667,-363.5 150.5,-367.333 150.5,-371.167 150.5,-371.167 150.5,-378.833 150.5,-378.833 150.5,-382.667 146.667,-386.5 142.833,-386.5"/>
<text text-anchor="middle" x="100" y="-371.3" font-family="Arial" font-size="14.00" fill="#cfffac">commands.js</text>
</g>
<!-- database.js -->
<g id="node8" class="node"><title>database.js</title>
<path fill="none" stroke="#cfffac" d="M1259.83,-148.5C1259.83,-148.5 1186.17,-148.5 1186.17,-148.5 1182.33,-148.5 1178.5,-144.667 1178.5,-140.833 1178.5,-140.833 1178.5,-133.167 1178.5,-133.167 1178.5,-129.333 1182.33,-125.5 1186.17,-125.5 1186.17,-125.5 1259.83,-125.5 1259.83,-125.5 1263.67,-125.5 1267.5,-129.333 1267.5,-133.167 1267.5,-133.167 1267.5,-140.833 1267.5,-140.833 1267.5,-144.667 1263.67,-148.5 1259.83,-148.5"/>
<text text-anchor="middle" x="1223" y="-133.3" font-family="Arial" font-size="14.00" fill="#cfffac">database.js</text>
</g>
<!-- forms.js -->
<g id="node9" class="node"><title>forms.js</title>
<path fill="none" stroke="#c6c5fe" d="M296.333,-305.5C296.333,-305.5 243.667,-305.5 243.667,-305.5 239.833,-305.5 236,-301.667 236,-297.833 236,-297.833 236,-290.167 236,-290.167 236,-286.333 239.833,-282.5 243.667,-282.5 243.667,-282.5 296.333,-282.5 296.333,-282.5 300.167,-282.5 304,-286.333 304,-290.167 304,-290.167 304,-297.833 304,-297.833 304,-301.667 300.167,-305.5 296.333,-305.5"/>
<text text-anchor="middle" x="270" y="-290.3" font-family="Arial" font-size="14.00" fill="#c6c5fe">forms.js</text>
</g>
<!-- forms.js&#45;&gt;state.js -->
<g id="edge7" class="edge"><title>forms.js&#45;&gt;state.js</title>
<path fill="none" stroke="#757575" d="M304.037,-300.29C393.928,-317.403 642.714,-364.768 740.393,-383.364"/>
<polygon fill="#757575" stroke="#757575" points="739.975,-386.848 750.453,-385.28 741.284,-379.971 739.975,-386.848"/>
</g>
<!-- providers.js -->
<g id="node10" class="node"><title>providers.js</title>
<path fill="none" stroke="#c6c5fe" d="M422.333,-207.5C422.333,-207.5 347.667,-207.5 347.667,-207.5 343.833,-207.5 340,-203.667 340,-199.833 340,-199.833 340,-192.167 340,-192.167 340,-188.333 343.833,-184.5 347.667,-184.5 347.667,-184.5 422.333,-184.5 422.333,-184.5 426.167,-184.5 430,-188.333 430,-192.167 430,-192.167 430,-199.833 430,-199.833 430,-203.667 426.167,-207.5 422.333,-207.5"/>
<text text-anchor="middle" x="385" y="-192.3" font-family="Arial" font-size="14.00" fill="#c6c5fe">providers.js</text>
</g>
<!-- forms.js&#45;&gt;providers.js -->
<g id="edge6" class="edge"><title>forms.js&#45;&gt;providers.js</title>
<path fill="none" stroke="#757575" d="M284.406,-282.373C303.776,-265.575 339.78,-234.35 362.781,-214.403"/>
<polygon fill="#757575" stroke="#757575" points="365.35,-216.808 370.611,-207.612 360.763,-211.519 365.35,-216.808"/>
</g>
<!-- providers/gameobject&#45;provider.js -->
<g id="node17" class="node"><title>providers/gameobject&#45;provider.js</title>
<path fill="none" stroke="#c6c5fe" d="M1126.33,-89.5C1126.33,-89.5 916.667,-89.5 916.667,-89.5 912.833,-89.5 909,-85.6667 909,-81.8333 909,-81.8333 909,-74.1667 909,-74.1667 909,-70.3333 912.833,-66.5 916.667,-66.5 916.667,-66.5 1126.33,-66.5 1126.33,-66.5 1130.17,-66.5 1134,-70.3333 1134,-74.1667 1134,-74.1667 1134,-81.8333 1134,-81.8333 1134,-85.6667 1130.17,-89.5 1126.33,-89.5"/>
<text text-anchor="middle" x="1021.5" y="-74.3" font-family="Arial" font-size="14.00" fill="#c6c5fe">providers/gameobject&#45;provider.js</text>
</g>
<!-- providers.js&#45;&gt;providers/gameobject&#45;provider.js -->
<g id="edge13" class="edge"><title>providers.js&#45;&gt;providers/gameobject&#45;provider.js</title>
<path fill="none" stroke="#757575" d="M397.165,-184.179C411.556,-169.793 438.068,-146.058 466,-135 606.952,-79.2008 783.025,-70.3468 898.462,-71.8788"/>
<polygon fill="#757575" stroke="#757575" points="898.69,-75.3828 908.745,-72.0448 898.803,-68.3837 898.69,-75.3828"/>
</g>
<!-- providers/npc&#45;provider.js -->
<g id="node18" class="node"><title>providers/npc&#45;provider.js</title>
<path fill="none" stroke="#c6c5fe" d="M1100.33,-245.5C1100.33,-245.5 942.667,-245.5 942.667,-245.5 938.833,-245.5 935,-241.667 935,-237.833 935,-237.833 935,-230.167 935,-230.167 935,-226.333 938.833,-222.5 942.667,-222.5 942.667,-222.5 1100.33,-222.5 1100.33,-222.5 1104.17,-222.5 1108,-226.333 1108,-230.167 1108,-230.167 1108,-237.833 1108,-237.833 1108,-241.667 1104.17,-245.5 1100.33,-245.5"/>
<text text-anchor="middle" x="1021.5" y="-230.3" font-family="Arial" font-size="14.00" fill="#c6c5fe">providers/npc&#45;provider.js</text>
</g>
<!-- providers.js&#45;&gt;providers/npc&#45;provider.js -->
<g id="edge14" class="edge"><title>providers.js&#45;&gt;providers/npc&#45;provider.js</title>
<path fill="none" stroke="#757575" d="M430.003,-199.437C441.7,-200.313 454.326,-201.225 466,-202 626.948,-212.679 814.314,-223.065 924.854,-228.981"/>
<polygon fill="#757575" stroke="#757575" points="924.807,-232.484 934.979,-229.522 925.18,-225.494 924.807,-232.484"/>
</g>
<!-- providers/player&#45;provider.js -->
<g id="node19" class="node"><title>providers/player&#45;provider.js</title>
<path fill="none" stroke="#c6c5fe" d="M646.333,-167.5C646.333,-167.5 473.667,-167.5 473.667,-167.5 469.833,-167.5 466,-163.667 466,-159.833 466,-159.833 466,-152.167 466,-152.167 466,-148.333 469.833,-144.5 473.667,-144.5 473.667,-144.5 646.333,-144.5 646.333,-144.5 650.167,-144.5 654,-148.333 654,-152.167 654,-152.167 654,-159.833 654,-159.833 654,-163.667 650.167,-167.5 646.333,-167.5"/>
<text text-anchor="middle" x="560" y="-152.3" font-family="Arial" font-size="14.00" fill="#c6c5fe">providers/player&#45;provider.js</text>
</g>
<!-- providers.js&#45;&gt;providers/player&#45;provider.js -->
<g id="edge15" class="edge"><title>providers.js&#45;&gt;providers/player&#45;provider.js</title>
<path fill="none" stroke="#757575" d="M430.103,-185.803C451.119,-180.944 476.571,-175.059 499.288,-169.806"/>
<polygon fill="#757575" stroke="#757575" points="500.216,-173.184 509.171,-167.521 498.639,-166.364 500.216,-173.184"/>
</g>
<!-- providers/room&#45;provider.js -->
<g id="node20" class="node"><title>providers/room&#45;provider.js</title>
<path fill="none" stroke="#c6c5fe" d="M865.333,-187.5C865.333,-187.5 697.667,-187.5 697.667,-187.5 693.833,-187.5 690,-183.667 690,-179.833 690,-179.833 690,-172.167 690,-172.167 690,-168.333 693.833,-164.5 697.667,-164.5 697.667,-164.5 865.333,-164.5 865.333,-164.5 869.167,-164.5 873,-168.333 873,-172.167 873,-172.167 873,-179.833 873,-179.833 873,-183.667 869.167,-187.5 865.333,-187.5"/>
<text text-anchor="middle" x="781.5" y="-172.3" font-family="Arial" font-size="14.00" fill="#c6c5fe">providers/room&#45;provider.js</text>
</g>
<!-- providers.js&#45;&gt;providers/room&#45;provider.js -->
<g id="edge16" class="edge"><title>providers.js&#45;&gt;providers/room&#45;provider.js</title>
<path fill="none" stroke="#757575" d="M430.106,-193.764C490.071,-190.724 599.07,-185.198 679.631,-181.114"/>
<polygon fill="#757575" stroke="#757575" points="679.995,-184.6 689.805,-180.598 679.641,-177.609 679.995,-184.6"/>
</g>
<!-- gameobject.js -->
<g id="node11" class="node"><title>gameobject.js</title>
<path fill="none" stroke="#cfffac" d="M1268.33,-89.5C1268.33,-89.5 1177.67,-89.5 1177.67,-89.5 1173.83,-89.5 1170,-85.6667 1170,-81.8333 1170,-81.8333 1170,-74.1667 1170,-74.1667 1170,-70.3333 1173.83,-66.5 1177.67,-66.5 1177.67,-66.5 1268.33,-66.5 1268.33,-66.5 1272.17,-66.5 1276,-70.3333 1276,-74.1667 1276,-74.1667 1276,-81.8333 1276,-81.8333 1276,-85.6667 1272.17,-89.5 1268.33,-89.5"/>
<text text-anchor="middle" x="1223" y="-74.3" font-family="Arial" font-size="14.00" fill="#cfffac">gameobject.js</text>
</g>
<!-- index.js -->
<g id="node12" class="node"><title>index.js</title>
<path fill="none" stroke="#c6c5fe" d="M124.833,-345.5C124.833,-345.5 75.1667,-345.5 75.1667,-345.5 71.3333,-345.5 67.5,-341.667 67.5,-337.833 67.5,-337.833 67.5,-330.167 67.5,-330.167 67.5,-326.333 71.3333,-322.5 75.1667,-322.5 75.1667,-322.5 124.833,-322.5 124.833,-322.5 128.667,-322.5 132.5,-326.333 132.5,-330.167 132.5,-330.167 132.5,-337.833 132.5,-337.833 132.5,-341.667 128.667,-345.5 124.833,-345.5"/>
<text text-anchor="middle" x="100" y="-330.3" font-family="Arial" font-size="14.00" fill="#c6c5fe">index.js</text>
</g>
<!-- index.js&#45;&gt;actor.js -->
<g id="edge8" class="edge"><title>index.js&#45;&gt;actor.js</title>
<path fill="none" stroke="#757575" d="M132.631,-337.352C152.507,-340.19 178.384,-345.246 200,-354 290.046,-390.466 286.851,-472 384,-472 384,-472 384,-472 782.5,-472 938.975,-472 994.952,-523.763 1134,-452 1156.76,-440.253 1153.19,-426.322 1170,-407 1180.72,-394.676 1193.29,-381.352 1203.39,-370.905"/>
<polygon fill="#757575" stroke="#757575" points="1206.09,-373.149 1210.55,-363.541 1201.07,-368.267 1206.09,-373.149"/>
</g>
<!-- index.js&#45;&gt;connection.js -->
<g id="edge9" class="edge"><title>index.js&#45;&gt;connection.js</title>
<path fill="none" stroke="#757575" d="M104.43,-322.113C122.398,-262.614 211.475,-0 384,-0 384,-0 384,-0 1022.5,-0 1120.94,-0 1234.47,-16.0656 1301.86,-27.3047"/>
<polygon fill="#757575" stroke="#757575" points="1301.42,-30.78 1311.86,-28.9945 1302.58,-23.8778 1301.42,-30.78"/>
</g>
<!-- index.js&#45;&gt;state.js -->
<g id="edge12" class="edge"><title>index.js&#45;&gt;state.js</title>
<path fill="none" stroke="#757575" d="M132.62,-337.5C159.965,-340.475 200.567,-344.764 236,-348 424.485,-365.213 650.054,-381.724 740.301,-388.165"/>
<polygon fill="#757575" stroke="#757575" points="740.151,-391.663 750.374,-388.882 740.648,-384.68 740.151,-391.663"/>
</g>
<!-- index.js&#45;&gt;forms.js -->
<g id="edge10" class="edge"><title>index.js&#45;&gt;forms.js</title>
<path fill="none" stroke="#757575" d="M132.6,-326.476C158.957,-320.201 196.776,-311.196 225.909,-304.26"/>
<polygon fill="#757575" stroke="#757575" points="226.901,-307.622 235.818,-301.9 225.279,-300.812 226.901,-307.622"/>
</g>
<!-- index.js&#45;&gt;myTransforms.js -->
<g id="edge11" class="edge"><title>index.js&#45;&gt;myTransforms.js</title>
<path fill="none" stroke="#757575" d="M132.651,-333.312C263.442,-330.467 763.606,-319.588 949.968,-315.534"/>
<polygon fill="#757575" stroke="#757575" points="950.275,-319.028 960.197,-315.312 950.123,-312.03 950.275,-319.028"/>
</g>
<!-- out/scripts/linenumber.js -->
<g id="node14" class="node"><title>out/scripts/linenumber.js</title>
<path fill="none" stroke="#cfffac" d="M177.333,-427.5C177.333,-427.5 22.6667,-427.5 22.6667,-427.5 18.8333,-427.5 15,-423.667 15,-419.833 15,-419.833 15,-412.167 15,-412.167 15,-408.333 18.8333,-404.5 22.6667,-404.5 22.6667,-404.5 177.333,-404.5 177.333,-404.5 181.167,-404.5 185,-408.333 185,-412.167 185,-412.167 185,-419.833 185,-419.833 185,-423.667 181.167,-427.5 177.333,-427.5"/>
<text text-anchor="middle" x="100" y="-412.3" font-family="Arial" font-size="14.00" fill="#cfffac">out/scripts/linenumber.js</text>
</g>
<!-- out/scripts/prettify/lang&#45;css.js -->
<g id="node15" class="node"><title>out/scripts/prettify/lang&#45;css.js</title>
<path fill="none" stroke="#cfffac" d="M192.333,-468.5C192.333,-468.5 7.66667,-468.5 7.66667,-468.5 3.83333,-468.5 0,-464.667 0,-460.833 0,-460.833 0,-453.167 0,-453.167 0,-449.333 3.83333,-445.5 7.66667,-445.5 7.66667,-445.5 192.333,-445.5 192.333,-445.5 196.167,-445.5 200,-449.333 200,-453.167 200,-453.167 200,-460.833 200,-460.833 200,-464.667 196.167,-468.5 192.333,-468.5"/>
<text text-anchor="middle" x="100" y="-453.3" font-family="Arial" font-size="14.00" fill="#cfffac">out/scripts/prettify/lang&#45;css.js</text>
</g>
<!-- out/scripts/prettify/prettify.js -->
<g id="node16" class="node"><title>out/scripts/prettify/prettify.js</title>
<path fill="none" stroke="#cfffac" d="M186.833,-509.5C186.833,-509.5 13.1667,-509.5 13.1667,-509.5 9.33333,-509.5 5.5,-505.667 5.5,-501.833 5.5,-501.833 5.5,-494.167 5.5,-494.167 5.5,-490.333 9.33333,-486.5 13.1667,-486.5 13.1667,-486.5 186.833,-486.5 186.833,-486.5 190.667,-486.5 194.5,-490.333 194.5,-494.167 194.5,-494.167 194.5,-501.833 194.5,-501.833 194.5,-505.667 190.667,-509.5 186.833,-509.5"/>
<text text-anchor="middle" x="100" y="-494.3" font-family="Arial" font-size="14.00" fill="#cfffac">out/scripts/prettify/prettify.js</text>
</g>
<!-- providers/gameobject&#45;provider.js&#45;&gt;database.js -->
<g id="edge17" class="edge"><title>providers/gameobject&#45;provider.js&#45;&gt;database.js</title>
<path fill="none" stroke="#757575" d="M1078.46,-89.5547C1096.33,-93.6435 1116.12,-98.5868 1134,-104 1150.65,-109.041 1168.7,-115.609 1184.1,-121.556"/>
<polygon fill="#757575" stroke="#757575" points="1183.2,-124.963 1193.79,-125.353 1185.75,-118.446 1183.2,-124.963"/>
</g>
<!-- providers/gameobject&#45;provider.js&#45;&gt;gameobject.js -->
<g id="edge18" class="edge"><title>providers/gameobject&#45;provider.js&#45;&gt;gameobject.js</title>
<path fill="none" stroke="#757575" d="M1134.21,-78C1142.85,-78 1151.36,-78 1159.5,-78"/>
<polygon fill="#757575" stroke="#757575" points="1159.57,-81.5001 1169.57,-78 1159.57,-74.5001 1159.57,-81.5001"/>
</g>
<!-- providers/npc&#45;provider.js&#45;&gt;actor.js -->
<g id="edge19" class="edge"><title>providers/npc&#45;provider.js&#45;&gt;actor.js</title>
<path fill="none" stroke="#757575" d="M1098.81,-245.558C1111.04,-249.146 1123.21,-253.845 1134,-260 1165.58,-278.014 1192.91,-310.865 1208.41,-332.046"/>
<polygon fill="#757575" stroke="#757575" points="1205.66,-334.215 1214.31,-340.333 1211.36,-330.156 1205.66,-334.215"/>
</g>
<!-- providers/npc&#45;provider.js&#45;&gt;database.js -->
<g id="edge20" class="edge"><title>providers/npc&#45;provider.js&#45;&gt;database.js</title>
<path fill="none" stroke="#757575" d="M1046.17,-222.492C1081.62,-205.255 1148.63,-172.672 1188.91,-153.089"/>
<polygon fill="#757575" stroke="#757575" points="1190.59,-156.164 1198.05,-148.644 1187.53,-149.869 1190.59,-156.164"/>
</g>
<!-- providers/player&#45;provider.js&#45;&gt;actor.js -->
<g id="edge21" class="edge"><title>providers/player&#45;provider.js&#45;&gt;actor.js</title>
<path fill="none" stroke="#757575" d="M596.746,-167.524C622.573,-175.742 658.337,-186.902 690,-196 786.774,-223.805 810.635,-232.492 909,-254 1008.15,-275.679 1039.79,-255.249 1134,-293 1158.72,-302.905 1183.62,-320.474 1200.6,-333.873"/>
<polygon fill="#757575" stroke="#757575" points="1198.73,-336.866 1208.71,-340.436 1203.13,-331.425 1198.73,-336.866"/>
</g>
<!-- providers/player&#45;provider.js&#45;&gt;connection.js -->
<g id="edge22" class="edge"><title>providers/player&#45;provider.js&#45;&gt;connection.js</title>
<path fill="none" stroke="#757575" d="M592.108,-144.464C652.296,-122.751 789.31,-76.2647 909,-57 1048.34,-34.5723 1214.77,-34.2686 1301.61,-36.0801"/>
<polygon fill="#757575" stroke="#757575" points="1301.72,-39.5835 1311.79,-36.3102 1301.88,-32.5852 1301.72,-39.5835"/>
</g>
<!-- providers/player&#45;provider.js&#45;&gt;database.js -->
<g id="edge23" class="edge"><title>providers/player&#45;provider.js&#45;&gt;database.js</title>
<path fill="none" stroke="#757575" d="M654.033,-151.644C724.112,-148.512 822.568,-144.429 909,-142 999.898,-139.446 1105.68,-138.095 1168.07,-137.465"/>
<polygon fill="#757575" stroke="#757575" points="1168.48,-140.961 1178.45,-137.363 1168.41,-133.961 1168.48,-140.961"/>
</g>
<!-- providers/player&#45;provider.js&#45;&gt;providers/room&#45;provider.js -->
<g id="edge24" class="edge"><title>providers/player&#45;provider.js&#45;&gt;providers/room&#45;provider.js</title>
<path fill="none" stroke="#757575" d="M654.088,-164.482C662.57,-165.255 671.188,-166.04 679.733,-166.819"/>
<polygon fill="#757575" stroke="#757575" points="679.442,-170.306 689.718,-167.728 680.077,-163.335 679.442,-170.306"/>
</g>
<!-- providers/room&#45;provider.js&#45;&gt;room.js -->
<g id="edge28" class="edge"><title>providers/room&#45;provider.js&#45;&gt;room.js</title>
<path fill="none" stroke="#757575" d="M873.087,-173.22C945.806,-173.863 1049.37,-181.344 1134,-213 1220.31,-245.285 1304.52,-318.251 1341.48,-352.962"/>
<polygon fill="#757575" stroke="#757575" points="1339.37,-355.791 1349.03,-360.147 1344.2,-350.719 1339.37,-355.791"/>
</g>
<!-- providers/room&#45;provider.js&#45;&gt;database.js -->
<g id="edge25" class="edge"><title>providers/room&#45;provider.js&#45;&gt;database.js</title>
<path fill="none" stroke="#757575" d="M873.032,-167.966C961.888,-160.082 1094.46,-148.317 1167.98,-141.793"/>
<polygon fill="#757575" stroke="#757575" points="1168.74,-145.24 1178.39,-140.87 1168.12,-138.267 1168.74,-145.24"/>
</g>
<!-- providers/room&#45;provider.js&#45;&gt;providers/gameobject&#45;provider.js -->
<g id="edge26" class="edge"><title>providers/room&#45;provider.js&#45;&gt;providers/gameobject&#45;provider.js</title>
<path fill="none" stroke="#757575" d="M810.736,-164.373C853.589,-146.728 935.104,-113.163 982.921,-93.4737"/>
<polygon fill="#757575" stroke="#757575" points="984.386,-96.6555 992.3,-89.6116 981.721,-90.1828 984.386,-96.6555"/>
</g>
<!-- providers/room&#45;provider.js&#45;&gt;providers/npc&#45;provider.js -->
<g id="edge27" class="edge"><title>providers/room&#45;provider.js&#45;&gt;providers/npc&#45;provider.js</title>
<path fill="none" stroke="#757575" d="M827.236,-187.533C851.418,-193.713 881.814,-201.392 909,-208 925.555,-212.024 943.523,-216.268 960.102,-220.133"/>
<polygon fill="#757575" stroke="#757575" points="959.688,-223.63 970.221,-222.486 961.273,-216.812 959.688,-223.63"/>
</g>
</g>
</svg>
